<?xml version="1.0" standalone="no"?>
<!DOCTYPE svg PUBLIC "-//W3C//DTD SVG 1.1//EN" "http://www.w3.org/Graphics/SVG/1.1/DTD/svg11.dtd" >
<svg xmlns="http://www.w3.org/2000/svg" xmlns:xlink="http://www.w3.org/1999/xlink" version="1.1">
<metadata>
Created by FontForge 20150804 at Wed May 17 07:54:31 2017
 By cloudconvert
Digital typeface data Copyright (c)1993,1996 Weatherly Systems, Inc. All Rights Reserved. Redistribution strictly prohibited.
</metadata>
<defs>
<font id="AvianRegular" horiz-adv-x="555" >
  <font-face 
    font-family="Avian"
    font-weight="5"
    font-stretch="normal"
    units-per-em="1000"
    panose-1="0 0 0 0 0 0 0 0 0 0"
    ascent="800"
    descent="-200"
    x-height="548"
    cap-height="740"
    bbox="-76 -229 1162 956"
    underline-thickness="50"
    underline-position="-125"
    unicode-range="U+0020-222B"
  />
<missing-glyph horiz-adv-x="800" 
d="M50 0v800h700v-800h-700zM700 50v700h-600v-700h600z" />
    <glyph glyph-name=".notdef" horiz-adv-x="800" 
d="M50 0v800h700v-800h-700zM700 50v700h-600v-700h600z" />
    <glyph glyph-name=".null" unicode="&#x141;" horiz-adv-x="0" 
 />
    <glyph glyph-name="nonmarkingreturn" horiz-adv-x="327" 
 />
    <glyph glyph-name="space" unicode=" " horiz-adv-x="327" 
 />
    <glyph glyph-name="space" unicode="&#xa0;" horiz-adv-x="327" 
 />
    <glyph glyph-name="exclam" unicode="!" horiz-adv-x="295" 
d="M185 183h-74v547h74v-547zM185 0h-74v116h74v-116z" />
    <glyph glyph-name="quotedbl" unicode="&#x22;" horiz-adv-x="309" 
d="M237 514h-52v226h52v-226zM126 514h-52v226h52v-226z" />
    <glyph glyph-name="numbersign" unicode="#" 
d="M550 489l-16 -58h-152l-36 -123h150l-17 -58h-151l-73 -250h-43l74 250h-90l-74 -250h-42l74 250h-149l16 58h150l36 123h-149l16 58h151l73 251h42l-72 -251h89l74 251h41l-73 -251h151zM339 431h-90l-36 -123h91z" />
    <glyph glyph-name="dollar" unicode="$" 
d="M479 221q0 -73 -49.5 -132.5t-119.5 -59.5v-83h-65v83q-70 12 -120 64.5t-50 121.5v12h70q0 -56 38 -95t95 -39q53 0 91.5 37.5t38.5 89.5q0 62 -39 97q-30 27 -96 45q-41 12 -67 23q-36 16 -60 40.5t-36 56.5t-12 69q0 67 40 115t107 60v83h65v-83q72 -10 117 -60
t45 -122h-70q0 51 -34.5 84.5t-86.5 33.5q-23 0 -39.5 -5.5t-33.5 -19.5q-22 -19 -30.5 -39.5t-8.5 -51.5q0 -43 21.5 -69.5t98.5 -49.5q47 -14 70 -24q38 -16 64.5 -42.5t41 -63t14.5 -76.5z" />
    <glyph glyph-name="percent" unicode="%" horiz-adv-x="776" 
d="M361 577q0 -72 -51 -124t-122 -52q-72 0 -123.5 52.5t-51.5 125.5q0 75 50 124t126 49q74 0 123 -51t49 -124zM586 740l-333 -740h-72l333 740h72zM753 159q0 -72 -51 -122t-123 -50t-124 51t-52 122q0 74 51 126t126 52q74 0 123.5 -52.5t49.5 -126.5zM290 582
q0 41 -29 70t-72 29q-46 0 -75.5 -28.5t-29.5 -74.5q0 -43 30.5 -74.5t72.5 -31.5q44 0 73.5 32.5t29.5 77.5zM682 163q0 42 -30 73t-72 31q-46 0 -76 -31t-30 -77q0 -43 31 -72t74 -29q45 0 74 30t29 75z" />
    <glyph glyph-name="ampersand" unicode="&#x26;" horiz-adv-x="759" 
d="M736 37l-53 -50l-169 165q-40 -78 -89 -118q-59 -47 -139 -47q-95 0 -162 67t-67 162q0 74 50 133q42 50 116 87q-40 40 -56 68q-22 39 -22 87q0 66 53 113.5t120 47.5q74 0 128.5 -50.5t54.5 -124.5q0 -59 -45 -105q-38 -39 -101 -62l140 -138l108 208h83l-137 -261z
M426 587q0 38 -32 66t-72 28q-42 0 -72.5 -26.5t-30.5 -68.5q0 -32 28 -68q13 -16 53 -54q68 24 100 59q26 29 26 64zM458 205l-178 174l-32 -17q-54 -27 -82 -59q-35 -40 -35 -93q0 -61 44.5 -106.5t104.5 -45.5q51 0 88 26q44 31 90 121z" />
    <glyph glyph-name="quotesingle" unicode="'" horiz-adv-x="220" 
d="M126 514h-52v226h52v-226z" />
    <glyph glyph-name="parenleft" unicode="(" horiz-adv-x="369" 
d="M335 -127q-52 14 -109 64q-47 41 -84 96q-85 124 -85 271q0 145 79 269q39 59 85 101q57 52 114 66v-65q-94 -53 -149 -156t-55 -215q0 -108 56 -211t148 -155v-65z" />
    <glyph glyph-name="parenright" unicode=")" horiz-adv-x="369" 
d="M312 304q0 -149 -85 -271q-37 -54 -84 -96q-56 -50 -109 -64v65q92 52 148 154.5t56 211.5q0 112 -55 215t-149 156v65q57 -16 113 -66q48 -43 86 -101q79 -121 79 -269z" />
    <glyph glyph-name="asterisk" unicode="*" horiz-adv-x="425" 
d="M360 583h-100l53 -89l-46 -28l-54 91l-52 -91l-48 28l54 89h-103v51h103l-54 90l48 28l52 -90l54 90l46 -28l-53 -90h100v-51z" />
    <glyph glyph-name="plus" unicode="+" horiz-adv-x="607" 
d="M556 265h-215v-216h-76v216h-214v76h214v214h76v-214h215v-76z" />
    <glyph glyph-name="comma" unicode="," horiz-adv-x="247" 
d="M199 126l-88 -193h-74l88 193h74z" />
    <glyph glyph-name="hyphen" unicode="-" horiz-adv-x="332" 
d="M302 267h-271v67h271v-67z" />
    <glyph glyph-name="period" unicode="." horiz-adv-x="174" 
d="M115 0h-74v126h74v-126z" />
    <glyph glyph-name="slash" unicode="/" horiz-adv-x="437" 
d="M397 740l-291 -868h-66l289 868h68z" />
    <glyph glyph-name="zero" unicode="0" 
d="M526 281q0 -70 -8 -106q-12 -53 -47 -97q-73 -91 -193 -91q-117 0 -190 86q-35 42 -46.5 91.5t-11.5 116.5v192q0 64 11.5 106.5t46 84.5t84.5 65t106 23q52 0 99.5 -20t83 -59t50.5 -89.5t15 -110.5v-192zM451 293v163q0 61 -8.5 95.5t-23.5 56.5q-22 33 -61 53t-80 20
q-44 0 -86 -23t-63 -61q-14 -25 -19.5 -63.5t-5.5 -77.5v-163q0 -56 5.5 -94.5t26.5 -69.5q51 -71 142 -71q100 0 148 82q15 26 20 66.5t5 86.5z" />
    <glyph glyph-name="one" unicode="1" 
d="M354 0h-74v673h-125v67h199v-740z" />
    <glyph glyph-name="two" unicode="2" 
d="M507 528q0 -87 -66 -165q-19 -22 -77 -78l-229 -218h368v-67h-470v66l282 272q56 54 78 84q39 53 39 105q0 66 -47.5 110t-114.5 44q-41 0 -78 -21t-58 -56q-12 -21 -16.5 -47t-4.5 -56h-74q0 109 65 180t172 71q49 0 87 -15t72.5 -49.5t53 -74.5t18.5 -85z" />
    <glyph glyph-name="three" unicode="3" 
d="M505 225q0 -98 -70 -168t-169 -70q-98 0 -165.5 72.5t-67.5 171.5h74q0 -28 5.5 -50t19.5 -45q23 -36 57.5 -57t74.5 -21q70 0 118 48t48 118q0 52 -30.5 94.5t-79.5 59.5q-19 7 -36.5 8.5t-51.5 1.5h-12v66l25 -2q59 0 95 27q42 32 42 90q0 50 -33 81t-83 31
q-49 0 -79 -37t-30 -88h-74q0 84 52 140t137 56q78 0 131 -55t53 -134q0 -44 -19 -77.5t-57 -62.5q56 -25 90.5 -80t34.5 -118z" />
    <glyph glyph-name="four" unicode="4" 
d="M528 135h-68v-135h-74v135h-374v67l358 538h90v-538h68v-67zM386 202v436l-287 -436h287z" />
    <glyph glyph-name="five" unicode="5" 
d="M529 246q0 -106 -71.5 -182.5t-177.5 -76.5q-105 0 -179.5 71.5t-74.5 173.5h74q0 -70 51 -122t125 -52q77 0 127.5 54.5t50.5 131.5q0 76 -51 132t-126 56q-44 0 -83 -21t-69 -57l-59 21l67 365h334v-67h-274l-37 -205q29 17 61 26.5t64 9.5q104 0 176 -77t72 -181z" />
    <glyph glyph-name="six" unicode="6" 
d="M530 245q0 -49 -19 -96t-54 -84q-74 -78 -182 -78q-104 0 -177 76t-73 181q0 77 42 151q8 14 53 82l175 263h86l-175 -261q40 24 88 24q99 0 169 -81q67 -77 67 -177zM455 243q0 76 -52 132t-127 56q-74 0 -125.5 -53.5t-51.5 -128.5q0 -78 50 -134.5t127 -56.5
q74 0 126.5 54.5t52.5 130.5z" />
    <glyph glyph-name="seven" unicode="7" 
d="M490 673l-302 -673h-80l304 673h-348v67h426v-67z" />
    <glyph glyph-name="eight" unicode="8" 
d="M513 218q0 -98 -70 -164.5t-169 -66.5q-96 0 -164 67t-68 163q0 61 35 118t90 78q-41 20 -63.5 60t-22.5 89q0 83 57.5 136.5t141.5 53.5q81 0 137 -57t56 -138q0 -47 -23.5 -86.5t-64.5 -57.5q57 -25 92.5 -79t35.5 -116zM399 563q0 48 -35 83t-84 35q-50 0 -87.5 -32.5
t-37.5 -82.5q0 -53 35.5 -87.5t88.5 -34.5q48 0 84 35t36 84zM438 218q0 66 -48.5 110.5t-114.5 44.5q-67 0 -113 -46t-46 -114q0 -65 46 -110t112 -45q68 0 116 46t48 114z" />
    <glyph glyph-name="nine" unicode="9" 
d="M530 495q0 -77 -43 -151q-9 -15 -53 -82l-175 -262h-86l175 259q-38 -23 -89 -23q-98 0 -166 78.5t-68 178.5q0 51 19 97.5t53 83.5q74 78 182 78q104 0 177.5 -75.5t73.5 -181.5zM455 489q0 78 -50 135t-127 57q-74 0 -126.5 -54.5t-52.5 -130.5q0 -75 54.5 -130.5
t124.5 -55.5q75 0 126 52t51 127z" />
    <glyph glyph-name="colon" unicode=":" horiz-adv-x="277" 
d="M175 384h-74v127h74v-127zM175 0h-74v126h74v-126z" />
    <glyph glyph-name="semicolon" unicode=";" horiz-adv-x="211" 
d="M155 384h-74v127h74v-127zM155 126l-88 -193h-74l88 193h74z" />
    <glyph glyph-name="less" unicode="&#x3c;" horiz-adv-x="607" 
d="M559 37l-510 232v64l510 233v-74l-415 -191l415 -191v-73z" />
    <glyph glyph-name="equal" unicode="=" horiz-adv-x="607" 
d="M556 361h-505v75h505v-75zM556 166h-505v75h505v-75z" />
    <glyph glyph-name="greater" unicode="&#x3e;" horiz-adv-x="607" 
d="M558 269l-510 -232v73l414 191l-414 191v74l510 -233v-64z" />
    <glyph glyph-name="question" unicode="?" horiz-adv-x="592" 
d="M526 527q0 -64 -48 -121q-46 -47 -91 -93q-49 -57 -49 -120h-74q0 58 30 112q27 47 73 89.5t59 60.5q25 35 25 80q0 62 -47 104t-109 42q-67 0 -113 -51t-46 -121h-71v21q0 42 18.5 83.5t51 73t75.5 48.5t92 17q96 0 160 -64t64 -161zM338 0h-74v126h74v-126z" />
    <glyph glyph-name="at" unicode="@" horiz-adv-x="955" 
d="M878 433q0 -101 -65 -184q-39 -50 -82 -77q-53 -33 -112 -33q-32 0 -59.5 13t-37.5 40q-24 -23 -60 -37t-72 -14q-69 0 -111.5 43.5t-42.5 107.5q0 110 76 204q83 103 199 103q41 0 75.5 -17.5t50.5 -49.5l16 47h75l-112 -306q-4 -10 -9 -26.5t-5 -25.5q0 -13 9 -21
t24 -8q34 0 74 27q34 23 59 54q56 73 56 164q0 119 -101 195q-95 72 -227 72q-153 0 -257.5 -99.5t-104.5 -238.5q0 -137 107 -233t257 -96q88 0 166.5 36.5t128.5 101.5l66 1q-52 -87 -150 -137.5t-211 -50.5q-178 0 -299 112t-121 273q0 157 123.5 268.5t297.5 111.5
q152 0 262 -87q117 -93 117 -233zM592 465q0 31 -21.5 52.5t-56.5 21.5q-82 0 -141 -86q-52 -76 -52 -156q0 -38 23 -65t63 -27t76 29q30 24 50 60q24 40 41.5 87t17.5 84z" />
    <glyph glyph-name="A" unicode="A" horiz-adv-x="740" 
d="M730 0h-80l-107 248h-345l-107 -248h-80l319 740h82l220 -512zM514 315l-143 340l-144 -340h287z" />
    <glyph glyph-name="B" unicode="B" horiz-adv-x="574" 
d="M545 209q0 -51 -24 -96.5t-67.5 -72.5t-98.5 -35q-35 -5 -105 -5h-174v740h173q53 0 93 -7t75 -30q41 -27 64.5 -68.5t23.5 -90.5q0 -47 -21.5 -84t-61.5 -65q58 -24 90.5 -73t32.5 -113zM430 549q0 31 -16 58t-43 44q-21 13 -52 17.5t-66 4.5h-17h-86v-250h80h18
q50 0 76 5.5t46 16.5q27 14 43.5 43.5t16.5 60.5zM469 208q0 48 -24 82.5t-68 50.5q-30 10 -74 12.5t-56 2.5h-19h-78v-289h91h19q56 0 86 5.5t51 16.5q32 17 52 50t20 69z" />
    <glyph glyph-name="C" unicode="C" horiz-adv-x="815" 
d="M771 193q-48 -92 -141 -149t-198 -57q-163 0 -275.5 110.5t-112.5 274.5q0 158 112 269t270 111q106 0 203 -53q105 -58 139 -149h-82q-40 62 -110.5 96.5t-148.5 34.5q-125 0 -217 -93t-92 -216q0 -129 93.5 -221.5t220.5 -92.5q75 0 144 36.5t113 98.5h82z" />
    <glyph glyph-name="D" unicode="D" horiz-adv-x="745" 
d="M701 371q0 -78 -31.5 -150t-91.5 -126.5t-138 -76.5q-64 -18 -160 -18h-204v740h199q89 0 159 -18.5t132.5 -69t98.5 -125.5t36 -156zM627 371q0 144 -115 235q-43 33 -97.5 50t-169.5 17h-95v-606h95q94 0 139 9q72 14 129 59q114 89 114 236z" />
    <glyph glyph-name="E" unicode="E" horiz-adv-x="536" 
d="M480 0h-404v740h404v-67h-330v-267h319v-67h-319v-272h330v-67z" />
    <glyph glyph-name="F" unicode="F" horiz-adv-x="485" 
d="M433 673h-301v-268h290v-67h-290v-338h-74v740h375v-67z" />
    <glyph glyph-name="G" unicode="G" horiz-adv-x="874" 
d="M832 341q0 -148 -121 -253q-117 -101 -271 -101q-161 0 -278.5 112.5t-117.5 273.5q0 72 30.5 143t83.5 123q57 56 129 84.5t153 28.5q111 0 208 -54q107 -60 139 -155h-84q-38 64 -110 101t-153 37q-62 0 -118 -20.5t-102.5 -63t-74 -102.5t-27.5 -123
q0 -133 95.5 -223.5t229.5 -90.5q102 0 187 60t113 156h-414v67h503z" />
    <glyph glyph-name="H" unicode="H" horiz-adv-x="684" 
d="M608 0h-74v347h-384v-347h-74v740h74v-326h384v326h74v-740z" />
    <glyph glyph-name="I" unicode="I" horiz-adv-x="226" 
d="M150 0h-74v740h74v-740z" />
    <glyph glyph-name="J" unicode="J" horiz-adv-x="482" 
d="M406 208q0 -54 -5 -78q-8 -36 -36 -71.5t-68.5 -53.5t-88.5 -18q-82 0 -139.5 54t-57.5 134h73q0 -52 38 -84.5t93 -32.5q38 0 66.5 19t41.5 55q6 18 7.5 41.5t1.5 56.5v510h74v-532z" />
    <glyph glyph-name="K" unicode="K" horiz-adv-x="592" 
d="M586 0h-93l-247 320l-96 -118v-202h-74v740h74v-426l341 426h95l-293 -361z" />
    <glyph glyph-name="L" unicode="L" horiz-adv-x="462" 
d="M456 0h-380v740h74v-673h306v-67z" />
    <glyph glyph-name="M" unicode="M" horiz-adv-x="920" 
d="M844 0h-74v658l-279 -658h-63l-278 658v-658h-74v740h114l270 -630l270 630h114v-740z" />
    <glyph glyph-name="N" unicode="N" horiz-adv-x="741" 
d="M665 0h-74l-441 651v-651h-74v740h100l415 -614v614h74v-740z" />
    <glyph glyph-name="O" unicode="O" horiz-adv-x="870" 
d="M826 372q0 -161 -115 -273t-277 -112q-157 0 -273.5 110.5t-116.5 268.5q0 162 114 274t276 112q159 0 275.5 -110.5t116.5 -269.5zM752 372q0 129 -93.5 219t-223.5 90q-131 0 -224 -92t-93 -223q0 -127 94.5 -217.5t222.5 -90.5q132 0 224.5 91.5t92.5 222.5z" />
    <glyph glyph-name="P" unicode="P" horiz-adv-x="592" 
d="M566 518q0 -111 -85 -172q-39 -29 -91 -40q-38 -8 -101 -8h-139v-298h-74v740h194q70 0 113 -6.5t87.5 -34.5t70 -76t25.5 -105zM491 519q0 100 -92 138q-25 10 -49 13.5t-57 3.5q-12 0 -24 -0.5t-24 -0.5h-95v-308h127q62 0 93 7.5t56 22.5q31 19 48 52.5t17 71.5z" />
    <glyph glyph-name="Q" unicode="Q" horiz-adv-x="872" 
d="M840 362q0 -77 -32.5 -147t-91.5 -124q22 -16 47 -26t49 -10l16 1v-69h-9q-90 0 -156 63q-45 -30 -105 -46.5t-118 -16.5q-160 0 -278 109t-118 268q0 168 115 278t283 110q169 0 283.5 -110.5t114.5 -279.5zM766 363q0 136 -94 227t-231 91q-134 0 -228.5 -91.5
t-94.5 -226.5q0 -34 2 -47t10 -37q77 27 158 27q111 0 204 -43q80 -37 173 -121q46 43 73.5 101t27.5 120zM606 102l-39 30q-47 37 -75 53q-21 12 -55 24t-78.5 20t-84.5 8q-35 0 -59.5 -4.5t-54.5 -16.5q14 -28 45 -59q28 -28 58 -48q40 -26 86 -38.5t97 -12.5
q43 0 85.5 10.5t74.5 33.5z" />
    <glyph glyph-name="R" unicode="R" horiz-adv-x="608" 
d="M578 498q0 -91 -64.5 -156.5t-154.5 -65.5l209 -276h-93l-251 335h22h20q53 0 81 3t60 17q45 21 71 61t26 90q0 38 -19 74t-51 58.5t-72.5 28.5t-94.5 6h-117v-673h-74v740h176q76 0 121 -5.5t89 -30.5q56 -32 86 -86t30 -120z" />
    <glyph glyph-name="S" unicode="S" horiz-adv-x="498" 
d="M476 203q0 -91 -66.5 -153.5t-158.5 -62.5q-97 0 -163 62t-66 158h79q0 -61 43 -105t105 -44q64 0 108.5 41.5t44.5 104.5q0 29 -14 57.5t-37 47.5t-54 31q-18 7 -64 19t-64 19q-37 14 -62 36q-30 25 -46 61.5t-16 77.5q0 88 60.5 143.5t149.5 55.5q84 0 143.5 -57.5
t59.5 -142.5h-77q0 56 -38.5 92.5t-96.5 36.5q-53 0 -90 -38t-37 -91q0 -46 28 -76t118 -55q67 -19 75 -22q38 -14 67 -41q69 -60 69 -155z" />
    <glyph glyph-name="T" unicode="T" horiz-adv-x="426" 
d="M419 673h-168v-673h-74v673h-170v67h412v-67z" />
    <glyph glyph-name="U" unicode="U" horiz-adv-x="657" 
d="M580 290q0 -68 -9 -109q-12 -56 -46.5 -100.5t-86 -69t-110.5 -24.5q-120 0 -193 88q-34 42 -46.5 96t-12.5 119v450h74v-450q0 -47 7 -85t28.5 -72t60 -54.5t82.5 -20.5q40 0 76.5 17.5t59.5 49.5q26 33 34 72.5t8 92.5v450h74v-450z" />
    <glyph glyph-name="V" unicode="V" horiz-adv-x="775" 
d="M705 740l-308 -740h-70l-305 740h81l259 -648l262 648h81z" />
    <glyph glyph-name="W" unicode="W" horiz-adv-x="961" 
d="M951 740l-211 -740h-97l-163 607l-163 -607h-97l-210 740h77l181 -645l177 645h71l177 -644l181 644h77z" />
    <glyph glyph-name="X" unicode="X" horiz-adv-x="610" 
d="M602 0h-87l-210 316l-210 -316h-87l251 378l-236 362h86l196 -297l196 297h86l-240 -362z" />
    <glyph glyph-name="Y" unicode="Y" horiz-adv-x="593" 
d="M591 740l-258 -493v-247h-74v247l-257 493h81l213 -416l214 416h81z" />
    <glyph glyph-name="Z" unicode="Z" horiz-adv-x="480" 
d="M474 0h-457v66l363 607h-352v67h435v-67l-362 -606h373v-67z" />
    <glyph glyph-name="bracketleft" unicode="[" horiz-adv-x="351" 
d="M313 -127q-38 9 -71 29.5t-61 51.5q-40 45 -54.5 92t-14.5 114v289q0 67 10.5 107.5t45.5 85.5q28 34 64 60q41 29 81 38v-76q-71 -31 -100 -81.5t-29 -133.5v-277q0 -89 24 -135q28 -54 105 -88v-76z" />
    <glyph glyph-name="backslash" unicode="\" horiz-adv-x="606" 
d="M464 0h-70l-310 740h71z" />
    <glyph glyph-name="bracketright" unicode="]" horiz-adv-x="351" 
d="M239 162q0 -62 -11 -105t-46 -87q-27 -35 -66 -62.5t-78 -34.5v76q71 29 100 80t29 133v276q0 58 -4 79q-7 37 -32 73q-17 26 -39 43t-54 31v76q38 -10 71.5 -30.5t60.5 -51.5q41 -45 55 -92t14 -115v-289z" />
    <glyph glyph-name="asciicircum" unicode="^" horiz-adv-x="607" 
d="M449 505h-64l-84 160l-79 -160h-64l115 235h58z" />
    <glyph glyph-name="underscore" unicode="_" horiz-adv-x="501" 
d="M501 -125h-501v58h501v-58z" />
    <glyph glyph-name="grave" unicode="`" horiz-adv-x="378" 
d="M304 672l-33 -58l-197 106l32 60z" />
    <glyph glyph-name="a" unicode="a" horiz-adv-x="684" 
d="M621 0h-71v103q-30 -56 -87.5 -86t-125.5 -30q-64 0 -127 29t-114 87q-18 20 -34 64q-20 55 -20 110t20.5 103.5t60 90t92 65.5t120.5 24q69 0 126.5 -29.5t86.5 -87.5l2 105h71v-512v-36zM550 270q0 91 -61.5 154.5t-153.5 63.5q-90 0 -154.5 -63.5t-64.5 -153.5
q0 -89 66 -151t155 -62q85 0 149 63t64 149z" />
    <glyph glyph-name="b" unicode="b" horiz-adv-x="684" 
d="M641 276q0 -55 -19.5 -104t-45.5 -78q-55 -62 -111 -86q-48 -21 -114 -21q-63 0 -122 27q-65 30 -94 80l-2 -94h-70v740h74v-295q26 55 84 85t123 30q121 0 209 -82t88 -202zM567 274q0 92 -64 153t-157 61q-89 0 -151.5 -64.5t-62.5 -154.5t63.5 -150.5t155.5 -60.5
q90 0 153 63t63 153z" />
    <glyph glyph-name="c" unicode="c" horiz-adv-x="647" 
d="M609 381h-83q-29 49 -79.5 78t-107.5 29q-93 0 -158 -60.5t-65 -152.5t62.5 -154.5t154.5 -62.5q62 0 109 25.5t84 76.5h82q-37 -81 -107 -127t-160 -46q-124 0 -211.5 81.5t-87.5 205.5q0 121 87.5 203.5t208.5 82.5q89 0 164.5 -49t106.5 -130z" />
    <glyph glyph-name="d" unicode="d" horiz-adv-x="687" 
d="M623 0h-70v100q-82 -113 -222 -113q-60 0 -116 26.5t-113 86.5q-22 19 -41 69t-19 106q0 121 86 203t208 82q64 0 122 -28t89 -80l2 288h74v-740zM551 276q0 90 -64.5 151t-155.5 61q-88 0 -151.5 -61.5t-63.5 -150.5q0 -90 63 -154t154 -64q90 0 154 64t64 154z" />
    <glyph glyph-name="e" unicode="e" horiz-adv-x="651" 
d="M612 247h-496q0 -76 64 -132.5t142 -56.5q62 0 117 32.5t80 87.5h77q-29 -83 -104 -137t-163 -54q-119 0 -203 83t-84 203q0 119 83 203t202 84q125 0 205 -86t80 -227zM538 314q-14 73 -74.5 123.5t-135.5 50.5q-78 0 -138 -49t-74 -125h422z" />
    <glyph glyph-name="f" unicode="f" horiz-adv-x="314" 
d="M311 480h-136v-480h-74v480h-85v68h85q0 92 52 142t143 50h14v-67h-14q-58 0 -89.5 -28.5t-31.5 -85.5v-11h136v-68z" />
    <glyph glyph-name="g" unicode="g" horiz-adv-x="675" 
d="M611 78q0 -74 -9 -108q-13 -50 -53.5 -93.5t-99.5 -67t-119 -23.5q-92 0 -169 55.5t-99 145.5h72q33 -63 83 -96.5t119 -33.5q54 0 103.5 25t76.5 70q16 29 20 55t4 71v30q-25 -58 -88 -91q-58 -30 -127 -30q-55 0 -105.5 21t-91.5 59q-86 82 -86 205q0 54 18 105
q15 43 34 64q51 65 111 94q52 25 116 25q69 0 128 -30t89 -89l2 107h71v-470zM539 273q0 92 -63.5 153.5t-156.5 61.5q-85 0 -144 -62t-59 -147q0 -93 59 -157t151 -64q83 0 148 65t65 150z" />
    <glyph glyph-name="h" unicode="h" horiz-adv-x="611" 
d="M548 0h-75v288q0 44 -6 73.5t-26 57.5q-23 32 -61.5 50.5t-79.5 18.5q-39 0 -75.5 -18t-59.5 -49q-18 -25 -23 -57t-5 -76v-288h-74v740h74v-272q23 44 68 68t98 24t102.5 -22.5t84 -61.5t46.5 -83.5t12 -104.5v-288z" />
    <glyph glyph-name="i" unicode="i" horiz-adv-x="200" 
d="M137 614h-74v111h74v-111zM137 0h-74v548h74v-548z" />
    <glyph glyph-name="j" unicode="j" horiz-adv-x="203" 
d="M140 614h-74v116h74v-116zM140 50q0 -73 -5 -98q-10 -50 -45 -87q-54 -57 -135 -57v72q71 0 95 53q16 35 16 117v498h74v-498z" />
    <glyph glyph-name="k" unicode="k" horiz-adv-x="503" 
d="M497 0h-95l-178 216l-87 -112v-104h-74v740h74v-520l251 328h95l-212 -275z" />
    <glyph glyph-name="l" unicode="l" horiz-adv-x="200" 
d="M137 0h-74v740h74v-740z" />
    <glyph glyph-name="m" unicode="m" horiz-adv-x="940" 
d="M876 0h-74v305q0 39 -5 66.5t-22 51.5q-46 65 -124 65q-77 0 -121 -62q-15 -21 -19 -50.5t-4 -70.5v-305h-75v313q0 36 -5 60t-21 49q-46 66 -123 66q-37 0 -67.5 -14.5t-52.5 -43.5q-16 -24 -21 -51.5t-5 -65.5v-313h-74v548h70v-72q20 42 58.5 63t87.5 21
q109 0 177 -84l14 -21l11 21q28 39 76 61.5t98 22.5q88 0 170 -84q30 -30 42 -74q9 -34 9 -90v-312z" />
    <glyph glyph-name="n" unicode="n" horiz-adv-x="611" 
d="M548 0h-75v288q0 54 -8 81t-24 49q-50 70 -141 70q-40 0 -75.5 -17.5t-58.5 -49.5q-19 -25 -24 -57t-5 -76v-288h-74v548h70v-80q64 92 170 92q57 0 107 -23.5t87 -68.5q29 -36 40 -80t11 -100v-288z" />
    <glyph glyph-name="o" unicode="o" horiz-adv-x="655" 
d="M614 277q0 -118 -84 -204t-201 -86q-118 0 -202.5 82.5t-84.5 200.5q0 120 83 205t204 85q114 0 199.5 -84.5t85.5 -198.5zM540 277q0 84 -62.5 147.5t-148.5 63.5q-90 0 -151.5 -63.5t-61.5 -154.5q0 -88 62 -150t151 -62q90 0 150.5 64.5t60.5 154.5z" />
    <glyph glyph-name="p" unicode="p" horiz-adv-x="683" 
d="M641 271q0 -121 -87.5 -202.5t-209.5 -81.5q-64 0 -122.5 30t-82.5 85l-2 -294h-74v740h70v-95q30 50 92 78.5t126 28.5q110 0 194 -71q96 -82 96 -218zM567 272q0 90 -63 153t-153 63q-91 0 -155 -60t-64 -150q0 -91 62.5 -155.5t151.5 -64.5q92 0 156.5 61.5
t64.5 152.5z" />
    <glyph glyph-name="q" unicode="q" horiz-adv-x="684" 
d="M620 -192h-74v294q-26 -54 -87 -86q-56 -29 -121 -29q-121 0 -208.5 81.5t-87.5 202.5q0 139 105 221q87 68 189 68q64 0 123 -27.5t89 -79.5l2 95h70v-740zM551 278q0 89 -64.5 149.5t-155.5 60.5q-89 0 -152 -63t-63 -153q0 -91 63.5 -152.5t156.5 -61.5q89 0 152 65
t63 155z" />
    <glyph glyph-name="r" unicode="r" horiz-adv-x="301" 
d="M292 486q-54 0 -99 -38q-35 -30 -45.5 -60t-10.5 -82v-306h-74v548h70v-80q21 47 62.5 69.5t96.5 22.5v-74z" />
    <glyph glyph-name="s" unicode="s" horiz-adv-x="388" 
d="M361 161q0 -77 -49.5 -125.5t-127.5 -48.5q-69 0 -117.5 51.5t-48.5 122.5h74q0 -42 28.5 -72.5t70.5 -30.5q41 0 68.5 25.5t27.5 65.5q0 45 -32 71q-25 20 -68.5 33t-57.5 19q-29 12 -48.5 30.5t-31 45.5t-11.5 58q0 66 46 110t112 44q61 0 106 -44t45 -105h-74
q0 35 -24 56t-61 21q-32 0 -54 -22t-22 -54q0 -40 30 -62q20 -14 66 -29q74 -24 107 -52q46 -40 46 -108z" />
    <glyph glyph-name="t" unicode="t" horiz-adv-x="339" 
d="M327 480h-127v-480h-74v480h-114v68h114v192h74v-192h127v-68z" />
    <glyph glyph-name="u" unicode="u" horiz-adv-x="610" 
d="M546 0h-71v85q-26 -50 -73 -74t-108 -24q-56 0 -101 22t-91 76q-23 24 -31 66.5t-8 106.5v290h74v-290q0 -52 5.5 -75.5t18.5 -45.5q46 -79 143 -79q84 0 134 67q19 27 26 59t7 74v290h75v-548z" />
    <glyph glyph-name="v" unicode="v" 
d="M547 548l-232 -548h-77l-230 548h80l189 -454l189 454h81z" />
    <glyph glyph-name="w" unicode="w" horiz-adv-x="833" 
d="M825 548l-208 -548h-85l-118 363l-115 -363h-85l-207 548h78l172 -459l127 391h61l127 -391l175 459h78z" />
    <glyph glyph-name="x" unicode="x" horiz-adv-x="480" 
d="M472 0h-87l-145 219l-145 -219h-87l187 278l-187 270h87l145 -212l145 212h87l-188 -270z" />
    <glyph glyph-name="y" unicode="y" horiz-adv-x="538" 
d="M528 548l-317 -740h-78l86 209l-210 531h79l175 -437l185 437h80z" />
    <glyph glyph-name="z" unicode="z" horiz-adv-x="425" 
d="M415 0h-405v65l296 415h-286v68h376v-68l-294 -413h313v-67z" />
    <glyph glyph-name="braceleft" unicode="{" horiz-adv-x="351" 
d="M271 -127q-42 0 -66 4t-48 22t-31 44t-7 64v190v11q0 23 -3.5 35.5t-17.5 30.5q-24 27 -61 32q19 5 29 9.5t24 15.5q21 16 25 33.5t4 54.5v170q0 86 31.5 118.5t120.5 32.5q-44 -13 -62 -40.5t-18 -74.5v-179q0 -62 -15 -90q-20 -36 -75 -50q53 -11 73 -42q17 -27 17 -85
v-191q0 -49 16.5 -75t63.5 -40z" />
    <glyph glyph-name="bar" unicode="|" horiz-adv-x="673" 
d="M368 0h-64v740h64v-740z" />
    <glyph glyph-name="braceright" unicode="}" horiz-adv-x="351" 
d="M269 306q-36 -5 -60 -32q-15 -17 -18.5 -33t-3.5 -44v-190q0 -40 -5 -59q-8 -31 -32.5 -49t-46.5 -22t-65 -4q44 14 60.5 40t16.5 75v191q0 57 18.5 86.5t71.5 40.5q-54 13 -74 50q-16 30 -16 90v179q0 46 -17.5 74t-59.5 41q88 0 118.5 -32.5t30.5 -118.5v-170
q0 -44 6.5 -59t23.5 -29q11 -9 23.5 -15t28.5 -10z" />
    <glyph glyph-name="asciitilde" unicode="~" horiz-adv-x="606" 
d="M556 344q-28 -50 -57 -76q-39 -35 -86 -35q-28 0 -86 23q-37 16 -49 21q-22 9 -44.5 17t-39.5 8q-41 0 -73 -43q-9 -12 -29 -47l-41 48q30 55 56 80q39 38 87 38q38 0 117 -35t103 -35q30 0 59 28q22 21 41 55z" />
    <glyph glyph-name="Adieresis" unicode="&#xc4;" horiz-adv-x="740" 
d="M730 0h-80l-107 248h-345l-107 -248h-80l319 740h82l220 -512zM514 315l-143 340l-144 -340h287zM480 773h-74v97h74v-97zM333 773h-74v97h74v-97z" />
    <glyph glyph-name="Aring" unicode="&#xc5;" horiz-adv-x="740" 
d="M730 0h-80l-107 248h-345l-107 -248h-80l319 740h82l220 -512zM514 315l-143 340l-144 -340h287zM440 853q0 -30 -21 -51t-51 -21q-31 0 -52.5 20.5t-21.5 49.5t21 50t51 21t52 -20t22 -49zM410 851q0 17 -12 30t-30 13t-31 -12t-13 -29t12 -30t30 -13t31 12t13 29z" />
    <glyph glyph-name="Ccedilla" unicode="&#xc7;" horiz-adv-x="815" 
d="M771 193q-48 -92 -141 -149t-198 -57q-163 0 -275.5 110.5t-112.5 274.5q0 158 112 269t270 111q106 0 203 -53q105 -58 139 -149h-82q-40 62 -110.5 96.5t-148.5 34.5q-125 0 -217 -93t-92 -216q0 -129 93.5 -221.5t220.5 -92.5q75 0 144 36.5t113 98.5h82zM522 -108
q0 -35 -25.5 -55.5t-62.5 -20.5q-28 0 -49.5 15t-29.5 46l40 4q4 -13 15 -20t24 -7q20 0 33 11t13 30q0 15 -13.5 26.5t-32.5 11.5q-12 -2 -20 -5.5t-17 -12.5l-29 13l38 76h33l-21 -48l29 5q32 0 53.5 -18t21.5 -51z" />
    <glyph glyph-name="Eacute" unicode="&#xc9;" horiz-adv-x="535" 
d="M480 0h-404v740h404v-67h-330v-267h319v-67h-319v-272h330v-67zM386 893l-193 -114l-34 56l192 116z" />
    <glyph glyph-name="Ntilde" unicode="&#xd1;" horiz-adv-x="741" 
d="M665 0h-74l-441 651v-651h-74v740h100l415 -614v614h74v-740zM520 812q-24 -19 -43 -29t-41 -10q-34 3 -90 33q-6 4 -15 6t-16 2q-12 0 -26 -6.5t-30 -22.5l-30 49q42 41 88 41q21 0 45 -11q59 -27 72 -28q17 2 28 6.5t29 18.5z" />
    <glyph glyph-name="Odieresis" unicode="&#xd6;" horiz-adv-x="870" 
d="M826 372q0 -161 -115 -273t-277 -112q-157 0 -273.5 110.5t-116.5 268.5q0 162 114 274t276 112q159 0 275.5 -110.5t116.5 -269.5zM752 372q0 129 -93.5 219t-223.5 90q-131 0 -224 -92t-93 -223q0 -127 94.5 -217.5t222.5 -90.5q132 0 224.5 91.5t92.5 222.5zM550 778
h-74v97h74v-97zM403 778h-74v97h74v-97z" />
    <glyph glyph-name="Udieresis" unicode="&#xdc;" horiz-adv-x="657" 
d="M580 290q0 -68 -9 -109q-12 -56 -46.5 -100.5t-86 -69t-110.5 -24.5q-120 0 -193 88q-34 42 -46.5 96t-12.5 119v450h74v-450q0 -47 7 -85t28.5 -72t60 -54.5t82.5 -20.5q40 0 76.5 17.5t59.5 49.5q26 33 34 72.5t8 92.5v450h74v-450zM445 773h-74v97h74v-97zM298 773
h-74v97h74v-97z" />
    <glyph glyph-name="aacute" unicode="&#xe1;" horiz-adv-x="684" 
d="M621 0h-71v103q-30 -56 -87.5 -86t-125.5 -30q-64 0 -127 29t-114 87q-18 20 -34 64q-20 55 -20 110t20.5 103.5t60 90t92 65.5t120.5 24q69 0 126.5 -29.5t86.5 -87.5l2 105h71v-512v-36zM550 270q0 91 -61.5 154.5t-153.5 63.5q-90 0 -154.5 -63.5t-64.5 -153.5
q0 -89 66 -151t155 -62q85 0 149 63t64 149zM486 723l-193 -114l-34 56l192 116z" />
    <glyph glyph-name="agrave" unicode="&#xe0;" horiz-adv-x="684" 
d="M621 0h-71v103q-30 -56 -87.5 -86t-125.5 -30q-64 0 -127 29t-114 87q-18 20 -34 64q-20 55 -20 110t20.5 103.5t60 90t92 65.5t120.5 24q69 0 126.5 -29.5t86.5 -87.5l2 105h71v-512v-36zM550 270q0 91 -61.5 154.5t-153.5 63.5q-90 0 -154.5 -63.5t-64.5 -153.5
q0 -89 66 -151t155 -62q85 0 149 63t64 149zM429 662l-33 -58l-197 106l32 60z" />
    <glyph glyph-name="acircumflex" unicode="&#xe2;" horiz-adv-x="684" 
d="M621 0h-71v103q-30 -56 -87.5 -86t-125.5 -30q-64 0 -127 29t-114 87q-18 20 -34 64q-20 55 -20 110t20.5 103.5t60 90t92 65.5t120.5 24q69 0 126.5 -29.5t86.5 -87.5l2 105h71v-512v-36zM550 270q0 91 -61.5 154.5t-153.5 63.5q-90 0 -154.5 -63.5t-64.5 -153.5
q0 -89 66 -151t155 -62q85 0 149 63t64 149zM515 608h-92l-86 75l-88 -75h-90l145 127h64z" />
    <glyph glyph-name="adieresis" unicode="&#xe4;" horiz-adv-x="684" 
d="M621 0h-71v103q-30 -56 -87.5 -86t-125.5 -30q-64 0 -127 29t-114 87q-18 20 -34 64q-20 55 -20 110t20.5 103.5t60 90t92 65.5t120.5 24q69 0 126.5 -29.5t86.5 -87.5l2 105h71v-512v-36zM550 270q0 91 -61.5 154.5t-153.5 63.5q-90 0 -154.5 -63.5t-64.5 -153.5
q0 -89 66 -151t155 -62q85 0 149 63t64 149zM440 618h-74v97h74v-97zM293 618h-74v97h74v-97z" />
    <glyph glyph-name="atilde" unicode="&#xe3;" horiz-adv-x="684" 
d="M621 0h-71v103q-30 -56 -87.5 -86t-125.5 -30q-64 0 -127 29t-114 87q-18 20 -34 64q-20 55 -20 110t20.5 103.5t60 90t92 65.5t120.5 24q69 0 126.5 -29.5t86.5 -87.5l2 105h71v-512v-36zM550 270q0 91 -61.5 154.5t-153.5 63.5q-90 0 -154.5 -63.5t-64.5 -153.5
q0 -89 66 -151t155 -62q85 0 149 63t64 149zM480 652q-24 -19 -43 -29t-41 -10q-34 3 -90 33q-6 4 -15 6t-16 2q-12 0 -26 -6.5t-30 -22.5l-30 49q42 41 88 41q21 0 45 -11q59 -27 72 -28q17 2 28 6.5t29 18.5z" />
    <glyph glyph-name="aring" unicode="&#xe5;" horiz-adv-x="684" 
d="M621 0h-71v103q-30 -56 -87.5 -86t-125.5 -30q-64 0 -127 29t-114 87q-18 20 -34 64q-20 55 -20 110t20.5 103.5t60 90t92 65.5t120.5 24q69 0 126.5 -29.5t86.5 -87.5l2 105h71v-512v-36zM550 270q0 91 -61.5 154.5t-153.5 63.5q-90 0 -154.5 -63.5t-64.5 -153.5
q0 -89 66 -151t155 -62q85 0 149 63t64 149zM417 692q0 -30 -21 -51t-52 -21t-52.5 20.5t-21.5 49.5q0 30 21 51t51 21q31 0 53 -20t22 -50zM387 690q0 17 -12 30t-31 13q-18 0 -31 -12t-13 -29t12 -30t30 -13q17 0 31 12t14 29z" />
    <glyph glyph-name="ccedilla" unicode="&#xe7;" horiz-adv-x="647" 
d="M609 381h-83q-29 49 -79.5 78t-107.5 29q-93 0 -158 -60.5t-65 -152.5t62.5 -154.5t154.5 -62.5q62 0 109 25.5t84 76.5h82q-37 -81 -107 -127t-160 -46q-124 0 -211.5 81.5t-87.5 205.5q0 121 87.5 203.5t208.5 82.5q89 0 164.5 -49t106.5 -130zM387 -104
q0 -33 -25.5 -53.5t-60.5 -20.5q-27 0 -48 15t-28 45l39 3q3 -10 9 -16q11 -10 28 -10q19 0 32 11t13 29q0 16 -12.5 26.5t-32.5 10.5q-20 -3 -35 -17l-29 12l38 74h32l-21 -47l28 5q31 0 52 -17t21 -50z" />
    <glyph glyph-name="eacute" unicode="&#xe9;" horiz-adv-x="651" 
d="M612 247h-496q0 -76 64 -132.5t142 -56.5q62 0 117 32.5t80 87.5h77q-29 -83 -104 -137t-163 -54q-119 0 -203 83t-84 203q0 119 83 203t202 84q125 0 205 -86t80 -227zM538 314q-14 73 -74.5 123.5t-135.5 50.5q-78 0 -138 -49t-74 -125h422zM476 723l-193 -114l-34 56
l192 116z" />
    <glyph glyph-name="egrave" unicode="&#xe8;" horiz-adv-x="651" 
d="M612 247h-496q0 -76 64 -132.5t142 -56.5q62 0 117 32.5t80 87.5h77q-29 -83 -104 -137t-163 -54q-119 0 -203 83t-84 203q0 119 83 203t202 84q125 0 205 -86t80 -227zM538 314q-14 73 -74.5 123.5t-135.5 50.5q-78 0 -138 -49t-74 -125h422zM399 667l-33 -58l-197 106
l32 60z" />
    <glyph glyph-name="ecircumflex" unicode="&#xea;" horiz-adv-x="651" 
d="M612 247h-496q0 -76 64 -132.5t142 -56.5q62 0 117 32.5t80 87.5h77q-29 -83 -104 -137t-163 -54q-119 0 -203 83t-84 203q0 119 83 203t202 84q125 0 205 -86t80 -227zM538 314q-14 73 -74.5 123.5t-135.5 50.5q-78 0 -138 -49t-74 -125h422zM505 613h-92l-86 75
l-88 -75h-90l145 127h64z" />
    <glyph glyph-name="edieresis" unicode="&#xeb;" horiz-adv-x="651" 
d="M612 247h-496q0 -76 64 -132.5t142 -56.5q62 0 117 32.5t80 87.5h77q-29 -83 -104 -137t-163 -54q-119 0 -203 83t-84 203q0 119 83 203t202 84q125 0 205 -86t80 -227zM538 314q-14 73 -74.5 123.5t-135.5 50.5q-78 0 -138 -49t-74 -125h422zM440 623h-74v97h74v-97z
M293 623h-74v97h74v-97z" />
    <glyph glyph-name="iacute" unicode="&#xed;" horiz-adv-x="200" 
d="M137 0h-74v548h74v-548zM266 728l-193 -114l-34 56l192 116z" />
    <glyph glyph-name="igrave" unicode="&#xec;" horiz-adv-x="200" 
d="M137 0h-74v548h74v-548zM174 677l-33 -58l-197 106l32 60z" />
    <glyph glyph-name="icircumflex" unicode="&#xee;" horiz-adv-x="200" 
d="M137 0h-74v548h74v-548zM280 608h-92l-86 75l-88 -75h-90l145 127h64z" />
    <glyph glyph-name="idieresis" unicode="&#xef;" horiz-adv-x="200" 
d="M137 0h-74v548h74v-548zM208 623h-74v97h74v-97zM61 623h-74v97h74v-97z" />
    <glyph glyph-name="ntilde" unicode="&#xf1;" horiz-adv-x="590" 
d="M548 0h-75v288q0 54 -8 81t-24 49q-50 70 -141 70q-40 0 -75.5 -17.5t-58.5 -49.5q-19 -25 -24 -57t-5 -76v-288h-74v548h70v-80q64 92 170 92q57 0 107 -23.5t87 -68.5q29 -36 40 -80t11 -100v-288zM455 642q-24 -19 -43 -29t-41 -10q-34 3 -90 33q-6 4 -15 6t-16 2
q-12 0 -26 -6.5t-30 -22.5l-30 49q42 41 88 41q21 0 45 -11q59 -27 72 -28q17 2 28 6.5t29 18.5z" />
    <glyph glyph-name="oacute" unicode="&#xf3;" horiz-adv-x="655" 
d="M614 277q0 -118 -84 -204t-201 -86q-118 0 -202.5 82.5t-84.5 200.5q0 120 83 205t204 85q114 0 199.5 -84.5t85.5 -198.5zM540 277q0 84 -62.5 147.5t-148.5 63.5q-90 0 -151.5 -63.5t-61.5 -154.5q0 -88 62 -150t151 -62q90 0 150.5 64.5t60.5 154.5zM481 718
l-193 -114l-34 56l192 116z" />
    <glyph glyph-name="ograve" unicode="&#xf2;" horiz-adv-x="660" 
d="M614 277q0 -118 -84 -204t-201 -86q-118 0 -202.5 82.5t-84.5 200.5q0 120 83 205t204 85q114 0 199.5 -84.5t85.5 -198.5zM540 277q0 84 -62.5 147.5t-148.5 63.5q-90 0 -151.5 -63.5t-61.5 -154.5q0 -88 62 -150t151 -62q90 0 150.5 64.5t60.5 154.5zM419 672l-33 -58
l-197 106l32 60z" />
    <glyph glyph-name="ocircumflex" unicode="&#xf4;" horiz-adv-x="655" 
d="M614 277q0 -118 -84 -204t-201 -86q-118 0 -202.5 82.5t-84.5 200.5q0 120 83 205t204 85q114 0 199.5 -84.5t85.5 -198.5zM540 277q0 84 -62.5 147.5t-148.5 63.5q-90 0 -151.5 -63.5t-61.5 -154.5q0 -88 62 -150t151 -62q90 0 150.5 64.5t60.5 154.5zM505 608h-92
l-86 75l-88 -75h-90l145 127h64z" />
    <glyph glyph-name="odieresis" unicode="&#xf6;" horiz-adv-x="655" 
d="M614 277q0 -118 -84 -204t-201 -86q-118 0 -202.5 82.5t-84.5 200.5q0 120 83 205t204 85q114 0 199.5 -84.5t85.5 -198.5zM540 277q0 84 -62.5 147.5t-148.5 63.5q-90 0 -151.5 -63.5t-61.5 -154.5q0 -88 62 -150t151 -62q90 0 150.5 64.5t60.5 154.5zM440 618h-74v97
h74v-97zM293 618h-74v97h74v-97z" />
    <glyph glyph-name="otilde" unicode="&#xf5;" horiz-adv-x="655" 
d="M614 277q0 -118 -84 -204t-201 -86q-118 0 -202.5 82.5t-84.5 200.5q0 120 83 205t204 85q114 0 199.5 -84.5t85.5 -198.5zM540 277q0 84 -62.5 147.5t-148.5 63.5q-90 0 -151.5 -63.5t-61.5 -154.5q0 -88 62 -150t151 -62q90 0 150.5 64.5t60.5 154.5zM475 652
q-24 -19 -43 -29t-41 -10q-34 3 -90 33q-6 4 -15 6t-16 2q-12 0 -26 -6.5t-30 -22.5l-30 49q42 41 88 41q21 0 45 -11q59 -27 72 -28q17 2 28 6.5t29 18.5z" />
    <glyph glyph-name="uacute" unicode="&#xfa;" horiz-adv-x="610" 
d="M546 0h-71v85q-26 -50 -73 -74t-108 -24q-56 0 -101 22t-91 76q-23 24 -31 66.5t-8 106.5v290h74v-290q0 -52 5.5 -75.5t18.5 -45.5q46 -79 143 -79q84 0 134 67q19 27 26 59t7 74v290h75v-548zM451 728l-193 -114l-34 56l192 116z" />
    <glyph glyph-name="ugrave" unicode="&#xf9;" horiz-adv-x="610" 
d="M546 0h-71v85q-26 -50 -73 -74t-108 -24q-56 0 -101 22t-91 76q-23 24 -31 66.5t-8 106.5v290h74v-290q0 -52 5.5 -75.5t18.5 -45.5q46 -79 143 -79q84 0 134 67q19 27 26 59t7 74v290h75v-548zM374 672l-33 -58l-197 106l32 60z" />
    <glyph glyph-name="ucircumflex" unicode="&#xfb;" horiz-adv-x="610" 
d="M546 0h-71v85q-26 -50 -73 -74t-108 -24q-56 0 -101 22t-91 76q-23 24 -31 66.5t-8 106.5v290h74v-290q0 -52 5.5 -75.5t18.5 -45.5q46 -79 143 -79q84 0 134 67q19 27 26 59t7 74v290h75v-548zM485 608h-92l-86 75l-88 -75h-90l145 127h64z" />
    <glyph glyph-name="udieresis" unicode="&#xfc;" horiz-adv-x="610" 
d="M546 5h-71v85q-26 -50 -73 -74t-108 -24q-56 0 -101 22t-91 76q-23 24 -31 66.5t-8 106.5v290h74v-290q0 -52 5.5 -75.5t18.5 -45.5q46 -79 143 -79q84 0 134 67q19 27 26 59t7 74v290h75v-548zM415 623h-74v97h74v-97zM268 623h-74v97h74v-97z" />
    <glyph glyph-name="dagger" unicode="&#x2020;" horiz-adv-x="559" 
d="M507 404l-193 -2v-607h-83v607l-187 2l-5 62l192 5v287h83v-285l193 -5v-64z" />
    <glyph glyph-name="degree" unicode="&#xb0;" horiz-adv-x="332" 
d="M258 706q0 -38 -27 -66t-65 -28t-66 27t-28 65t27 66t65 28t66 -27t28 -65zM220 704q0 23 -15.5 39.5t-38.5 16.5t-39.5 -15.5t-16.5 -38.5t15.5 -39.5t38.5 -16.5t39.5 15.5t16.5 38.5z" />
    <glyph glyph-name="cent" unicode="&#xa2;" 
d="M510 462h-84q-20 39 -58.5 59.5t-84.5 20.5q-65 0 -114.5 -46.5t-49.5 -110.5q0 -67 49 -115t117 -48q40 0 76 18t62 50h81q-19 -54 -69.5 -92.5t-108.5 -46.5v-89h-66v89q-89 0 -152 71t-63 164q0 88 64.5 157.5t150.5 69.5v93h66v-93q62 -7 113 -48.5t71 -102.5z" />
    <glyph glyph-name="sterling" unicode="&#xa3;" 
d="M593 210q0 -101 -80 -164q-38 -29 -86 -39q-33 -7 -95 -7h-274v67h139q20 18 31.5 50.5t11.5 62.5q0 53 -27 94q-21 31 -70 72h-125v67h73q-10 23 -15.5 46t-5.5 47q0 42 16 84t44 76q36 42 82.5 64t102.5 22q89 0 160 -61t80 -150h-71q-11 59 -59.5 99.5t-108.5 40.5
q-73 0 -122.5 -49.5t-49.5 -123.5q0 -28 6.5 -52t21.5 -43h284v-67h-214q32 -34 52 -76.5t20 -86.5q0 -30 -7.5 -58t-22.5 -58h25h19q49 0 75.5 4t55.5 24t44.5 53t15.5 71q0 14 -1 25.5t-5 22.5h72q8 -30 8 -57z" />
    <glyph glyph-name="section" unicode="&#xa7;" horiz-adv-x="616" 
d="M530 292q0 -41 -23.5 -82.5t-58.5 -62.5q23 -18 38 -48t15 -60q0 -80 -55 -129t-137 -49q-86 0 -145 59t-59 145h70q0 -56 38.5 -94.5t95.5 -38.5q52 0 84 26q36 29 36 79q0 37 -35 66q-18 15 -68 40l-162 84q-36 18 -55 44q-22 29 -22 67q0 47 23 85.5t65 67.5
q-18 17 -29 45.5t-11 54.5q0 70 49 115.5t120 45.5q68 0 120 -38q58 -42 58 -107h-70q0 34 -37 56q-31 18 -69 18q-43 0 -71.5 -24.5t-28.5 -67.5q0 -32 21 -55q15 -17 49 -33l126 -64q61 -30 87 -54q41 -38 41 -91zM458 278q0 35 -22 58q-15 16 -54 35l-164 83
q-26 -15 -43 -44t-17 -60q0 -23 12.5 -41.5t52.5 -38.5l177 -88q24 13 41 41t17 55z" />
    <glyph glyph-name="bullet" unicode="&#x2022;" horiz-adv-x="505" 
d="M355 225q-41 -44 -101 -44q-53 0 -92 36q-21 19 -32 45.5t-11 54.5q0 54 36 93q19 21 45.5 32t54.5 11q54 0 93 -36q43 -40 43 -100q0 -53 -36 -92z" />
    <glyph glyph-name="paragraph" unicode="&#xb6;" horiz-adv-x="565" 
d="M471 -127h-74v800h-94v-800h-74v482q-77 0 -134.5 56.5t-57.5 134.5q0 90 64 146q32 30 69 39t90 9h211v-867z" />
    <glyph glyph-name="germandbls" unicode="&#xdf;" 
d="M525 201q0 -48 -12.5 -81.5t-44 -65.5t-70.5 -49.5t-81 -17.5q-69 0 -110 20q-55 27 -76 92l-2 -214h-70v583q0 65 5.5 107t28.5 80q27 45 74 71t101 26q83 0 143.5 -61.5t60.5 -145.5q0 -51 -20.5 -92t-63.5 -64q65 -22 101 -71t36 -117zM450 200q0 43 -22.5 76.5
t-63.5 50.5q-22 9 -44.5 11.5t-55.5 2.5h-34h-7v67h12q30 0 57.5 6.5t49.5 21.5q27 18 41.5 47t14.5 64q0 55 -37.5 94.5t-92.5 39.5q-86 0 -119 -78q-9 -22 -12.5 -53.5t-3.5 -64.5v-17v-215q-2 -7 -2 -22q0 -62 65 -119q61 -54 116 -54q60 0 99 41t39 101z" />
    <glyph glyph-name="registered" unicode="&#xae;" horiz-adv-x="748" 
d="M756 370q0 -159 -111 -271t-271 -112q-159 0 -271 112t-112 271q0 158 112 270t271 112q158 0 270 -112t112 -270zM710 370q0 140 -98 238t-238 98t-238 -98t-98 -238t97.5 -238.5t238.5 -98.5q140 0 238 98t98 239zM571 470q0 -60 -39 -90q-35 -27 -97 -27l130 -197h-62
l-123 197h-96v-197h-52v428h186q35 0 58 -3.5t46.5 -17t36 -39t12.5 -54.5zM518 471q0 45 -36 62q-27 13 -76 13h-122v-152h80h31q57 0 83 11q40 17 40 66z" />
    <glyph glyph-name="copyright" unicode="&#xa9;" horiz-adv-x="748" 
d="M756 370q0 -159 -111 -271t-271 -112q-159 0 -271 112t-112 271q0 158 112 270t271 112q158 0 270 -112t112 -270zM710 370q0 140 -98 238t-238 98t-238 -98t-98 -238t97.5 -238.5t238.5 -98.5q140 0 238 98t98 239zM569 300q-7 -67 -58 -107.5t-120 -40.5
q-95 0 -153.5 62.5t-58.5 158.5q0 97 56.5 158.5t152.5 61.5q70 0 120 -38.5t61 -106.5h-55q-8 46 -42.5 73t-82.5 27q-73 0 -113.5 -49.5t-40.5 -124.5q0 -72 42.5 -124t113.5 -52q47 0 82 28t41 74h55z" />
    <glyph glyph-name="trademark" unicode="&#x2122;" horiz-adv-x="995" 
d="M939 318h-66v362l-146 -362h-39l-142 362v-362h-68v422h109l121 -298l125 298h106v-422zM404 680h-133v-362h-74v362h-134v60h341v-60z" />
    <glyph glyph-name="acute" unicode="&#xb4;" horiz-adv-x="375" 
d="M301 728l-193 -114l-34 56l192 116z" />
    <glyph glyph-name="dieresis" unicode="&#xa8;" horiz-adv-x="369" 
d="M295 623h-74v97h74v-97zM148 623h-74v97h74v-97z" />
    <glyph glyph-name="AE" unicode="&#xc6;" horiz-adv-x="992" 
d="M938 0h-391v250h-274l-173 -250h-88l511 740h413v-68h-317v-266h307v-66h-307v-274h319v-66zM547 316v330l-227 -330h227z" />
    <glyph glyph-name="Oslash" unicode="&#xd8;" horiz-adv-x="867" 
d="M826 371q0 -159 -115 -271t-275 -112q-108 0 -206 57l-93 -127l-55 41l94 127q-66 57 -99.5 129t-33.5 148q0 155 115 273t272 118q104 0 205 -57l94 125l52 -43l-90 -121q68 -61 103 -139q32 -71 32 -148zM592 639q-80 45 -164 45q-127 0 -218 -96.5t-91 -222.5
q0 -58 24 -114.5t76 -107.5zM748 369q0 66 -26.5 127t-75.5 104l-373 -498q95 -45 172 -45q125 0 214 93t89 219z" />
    <glyph glyph-name="plusminus" unicode="&#xb1;" horiz-adv-x="605" 
d="M557 316h-215v-164h-76v164h-215v77h215v162h76v-162h215v-77zM557 0h-506v76h506v-76z" />
    <glyph glyph-name="yen" unicode="&#xa5;" 
d="M590 740l-146 -282h100v-62h-133l-49 -97h175v-62h-204v-237h-74v237h-206v62h177l-51 97h-133v62h101l-147 282h81l216 -416l212 416h81z" />
    <glyph glyph-name="mu" unicode="&#xb5;" horiz-adv-x="607" 
d="M547 0h-70v86q-38 -53 -84 -77q-40 -21 -92 -21q-48 0 -86.5 14t-75.5 49v-242h-75v740h75v-289q0 -91 39 -143q43 -58 127 -58q72 0 120 58t48 143v289h74v-549z" />
    <glyph glyph-name="integral" unicode="&#x222b;" 
d="M543 748l-16 -70q-8 1 -12 1q-61 0 -95 -65q-25 -48 -25 -94l-104 -536q-9 -82 -53 -132q-70 -81 -222 -81v73q88 0 121 15q58 26 76 118l101 543q18 104 63 162q53 68 139 68q6 0 14.5 -1t12.5 -1z" />
    <glyph glyph-name="ordfeminine" unicode="&#xaa;" horiz-adv-x="320" 
d="M293 501h-36v52q-15 -29 -43.5 -44t-62.5 -15q-32 0 -63.5 15t-57.5 44q-9 10 -18 35t-9 52q0 26 11 51.5t30.5 46t44.5 32t61 11.5q34 0 63 -14.5t43 -43.5l1 52h36v-256v-18zM257 636q0 46 -30.5 77.5t-76.5 31.5q-45 0 -77.5 -31.5t-32.5 -76.5t33 -76t78 -31
q43 0 74.5 31.5t31.5 74.5zM307 400h-306v39h306v-39z" />
    <glyph glyph-name="ordmasculine" unicode="&#xba;" horiz-adv-x="320" 
d="M295 631q0 -59 -41.5 -102.5t-100.5 -43.5t-101.5 41.5t-42.5 100.5t42 102t102 43q56 0 99 -42t43 -99zM258 631q0 42 -30.5 73.5t-74.5 31.5q-45 0 -76 -32t-31 -77q0 -44 31 -75t76 -31t75 32t30 78zM299 400h-288v39h288v-39z" />
    <glyph glyph-name="ae" unicode="&#xe6;" horiz-adv-x="1156" 
d="M1121 250h-496q13 -89 79 -141q61 -48 140 -48q54 0 105.5 33t75.5 88h77q-30 -88 -101.5 -140t-154.5 -52q-61 0 -116 23q-61 26 -107 77v-100h-70v100q-52 -56 -100 -78t-119 -22q-120 0 -206.5 84.5t-86.5 195.5l2 13q0 109 74 190q82 90 213 90q60 0 103 -15
q68 -24 120 -87v102h70v-102q41 52 100.5 77.5t118.5 25.5q119 0 199 -91t80 -223zM1041 316q-14 85 -76 133q-55 43 -127 43q-75 0 -134 -45q-65 -49 -75 -131h412zM555 285q0 75 -56 136q-65 71 -169 71q-95 0 -156 -62q-57 -58 -57 -137q0 -91 54 -158q60 -74 157 -74
l4 2q101 0 165 70q58 64 58 152z" />
    <glyph glyph-name="oslash" unicode="&#xf8;" horiz-adv-x="652" 
d="M607 271q0 -119 -78.5 -201t-198.5 -82q-37 0 -73.5 9.5t-72.5 29.5l-55 -72l-51 39l53 70q-47 47 -70.5 101t-23.5 108q0 115 85.5 202.5t201.5 87.5q41 0 76.5 -10.5t74.5 -34.5l56 76l55 -39l-59 -78q41 -41 60.5 -94.5t19.5 -111.5zM432 461q-50 31 -106 31
q-89 0 -152 -68t-63 -156q0 -38 16 -76t47 -69zM537 281q0 85 -53 137l-257 -336q24 -12 51 -18.5t50 -6.5q89 0 149 67t60 157z" />
    <glyph glyph-name="questiondown" unicode="&#xbf;" horiz-adv-x="592" 
d="M328 421h-74v127h74v-127zM527 12q0 -42 -18.5 -83.5t-51.5 -75t-75.5 -50.5t-92.5 -17q-96 0 -159.5 65.5t-63.5 163.5q0 65 48 122q45 48 91 96q49 59 49 123h74q0 -61 -30 -116q-25 -45 -75 -92q-54 -51 -68.5 -78.5t-14.5 -63.5q0 -62 46.5 -105.5t109.5 -43.5
q68 0 113.5 52.5t45.5 124.5h72v-22z" />
    <glyph glyph-name="exclamdown" unicode="&#xa1;" horiz-adv-x="295" 
d="M185 421h-74v127h74v-127zM185 -192h-74v548h74v-548z" />
    <glyph glyph-name="logicalnot" unicode="&#xac;" horiz-adv-x="1200" 
d="M1162 -83h-1123v765h1123v-765zM1067 255v18h-19q-22 0 -28 7.5t-6 26.5v12v236q0 56 5 67t28 11h20v18h-160v-18h21q22 0 27 -11.5t5 -64.5v-238q0 -27 -3 -33q-7 -13 -33 -13h-17v-18h160zM1141 27q0 34 -25 49q-16 10 -53.5 17t-53.5 15q-24 12 -24 35q0 22 15 34
t38 12q16 0 31.5 -8.5t26.5 -20.5q2 -7 3.5 -14.5t1.5 -20.5h17q0 20 1.5 34.5t3.5 33.5q-44 13 -79 13q-50 0 -76.5 -22.5t-26.5 -59.5q0 -36 30 -53q22 -12 76 -21q49 -11 49 -45q0 -22 -17 -37t-45 -15q-21 0 -40.5 7t-27.5 19q-4 6 -4 27v18h-16v-12l-3 -43
q-1 -8 -1 -11q0 -12 5 -13q46 -11 77 -11q48 0 82.5 25t34.5 68zM941 184h-86q0 26 1 51.5t4 44.5q60 49 60 107q0 92 -120 92q-62 0 -86 17.5t-24 56.5q0 37 25.5 58.5t68.5 21.5q26 0 49.5 -9t32.5 -16q5 -10 5 -32v-23h18q0 47 9 80q-55 21 -111 21q-66 0 -106.5 -32.5
t-40.5 -89.5q0 -58 44 -82q31 -17 88 -17q56 0 80 -24q19 -19 19 -50q0 -37 -29.5 -61.5t-78.5 -24.5q-31 0 -59 10.5t-35 26.5l-1 34v14h-19v-26q0 -37 -3 -61q26 -11 53.5 -16t52.5 -5q30 0 51 7q5 -43 5 -73q-19 -11 -45 -19v-12h45v-157q0 -34 17 -48t47 -14q8 0 15 1
q14 4 21 5l27 34l-8 11q-14 -15 -32 -15q-21 0 -29 12q-11 17 -11 68v107l69 1l11 -1zM802 -60v17h-21q-15 0 -19 6.5t-4 26.5v28v92q0 56 -31 79q-23 17 -62 17q-32 0 -66 -26q-11 -8 -27 -27v36q0 4 -2 11q0 2 -2 6q-51 -22 -93 -22v-17h20q27 0 27 -16v-172
q0 -14 -6.5 -18t-20.5 -4h-20v-17h144v17h-19q-28 0 -28 22v32v37v49t3.5 36.5t23.5 24.5t45 12q39 0 52 -21.5t13 -62.5v-26.5v-17.5v-15v-13q0 -46 -4 -74h97zM680 633v18h-119v-18q17 0 33.5 -2t16.5 -11l-3 -12q-8 -37 -9 -42q-6 -23 -15 -55l-52 -175l-69 189l-46 129
h-14l-59 -154l-64 -161l-40 178l-19 91q-4 8 -4 10q0 15 33 15h17v18h-143v-18h11q16 0 21.5 -6.5t12.5 -35.5l48 -208l6 -30q-16 0 -30 -8.5t-39.5 -34.5t-35.5 -46q-7 -18 -7 -44v-36l-40 -21v-10l40 4v-105v-24.5t1 -22.5q0 -27 -6 -37.5t-25 -10.5h-19v-17h155v17h-23
q-22 0 -28.5 8.5t-6.5 33.5v24.5t1 28.5v105l37 1l34 -1l5 25l-2 2h-74v36q0 61 9 77t35 16q17 0 29 -9l11 -54h29q25 74 68 186l54 125l46 -125l58 -156l8 -30h30q25 103 73 261q32 106 41 118q3 1 6 3q3 1 8 1h15zM487 80q0 56 -35 91t-94 35q-63 0 -103 -37t-40 -96
q0 -62 34.5 -100.5t91.5 -38.5q63 0 104.5 40.5t41.5 105.5zM434 56q0 -50 -20 -76.5t-55 -26.5q-40 0 -64.5 39.5t-24.5 99.5q0 44 20.5 70.5t54.5 26.5q39 0 64 -34.5t25 -98.5z" />
    <glyph glyph-name="florin" unicode="&#x192;" 
d="M543 748l-16 -70q-8 1 -12 1q-61 0 -95 -65q-25 -48 -25 -94h109l-16 -71h-109l-88 -465q-9 -82 -53 -132q-70 -81 -222 -81v73q88 0 121 15q58 26 76 118l94 472h-118l16 71h109q18 104 63 162q53 68 139 68q6 0 14.5 -1t12.5 -1z" />
    <glyph glyph-name="guillemotleft" unicode="&#xab;" horiz-adv-x="425" 
d="M385 133l-59 -32l-113 200l113 200l59 -32l-94 -168zM211 133l-58 -32l-113 200l113 200l58 -32l-94 -168z" />
    <glyph glyph-name="guillemotright" unicode="&#xbb;" horiz-adv-x="425" 
d="M385 301l-113 -200l-59 32l94 168l-94 168l59 32zM211 301l-113 -200l-58 32l94 168l-94 168l58 32z" />
    <glyph glyph-name="ellipsis" unicode="&#x2026;" horiz-adv-x="930" 
d="M871 0h-74v126h74v-126zM538 0h-75v126h75v-126zM204 0h-74v126h74v-126z" />
    <glyph glyph-name="Agrave" unicode="&#xc0;" horiz-adv-x="740" 
d="M730 0h-80l-107 248h-345l-107 -248h-80l319 740h82l220 -512zM514 315l-143 340l-144 -340h287zM439 837l-33 -58l-197 106l32 60z" />
    <glyph glyph-name="Atilde" unicode="&#xc3;" horiz-adv-x="740" 
d="M730 0h-80l-107 248h-345l-107 -248h-80l319 740h82l220 -512zM514 315l-143 340l-144 -340h287zM515 817q-24 -19 -43 -29t-41 -10q-34 3 -90 33q-6 4 -15 6t-16 2q-12 0 -26 -6.5t-30 -22.5l-30 49q42 41 88 41q21 0 45 -11q59 -27 72 -28q17 2 28 6.5t29 18.5z" />
    <glyph glyph-name="Otilde" unicode="&#xd5;" horiz-adv-x="870" 
d="M826 372q0 -161 -115 -273t-277 -112q-157 0 -273.5 110.5t-116.5 268.5q0 162 114 274t276 112q159 0 275.5 -110.5t116.5 -269.5zM752 372q0 129 -93.5 219t-223.5 90q-131 0 -224 -92t-93 -223q0 -127 94.5 -217.5t222.5 -90.5q132 0 224.5 91.5t92.5 222.5zM575 822
q-24 -19 -43 -29t-41 -10q-34 3 -90 33q-6 4 -15 6t-16 2q-12 0 -26 -6.5t-30 -22.5l-30 49q42 41 88 41q21 0 45 -11q59 -27 72 -28q17 2 28 6.5t29 18.5z" />
    <glyph glyph-name="OE" unicode="&#x152;" horiz-adv-x="1193" 
d="M1141 674h-317v-268h305v-66h-305v-272h315v-68h-391v143q-52 -66 -125 -107q-86 -48 -180 -48q-184 0 -294 123q-102 114 -102 284q0 140 103 246q110 113 270 113q211 0 330 -154v140h391v-66zM750 377q0 120 -88 210q-95 97 -238 97q-135 0 -224 -101
q-81 -92 -81 -212q0 -125 88 -216q93 -96 236 -96q129 0 218 95t89 223z" />
    <glyph glyph-name="oe" unicode="&#x153;" horiz-adv-x="1137" 
d="M1104 246h-489q8 -88 73 -140q59 -47 136 -47q60 0 113 32.5t75 86.5h76q-32 -93 -111 -144q-71 -46 -159 -46q-74 0 -139.5 39.5t-100.5 107.5q-35 -56 -94 -97q-73 -50 -154 -50q-132 0 -212 94q-71 83 -71 193q0 111 70 194q77 92 201 92q87 0 164 -50q60 -39 98 -97
q38 72 105 108.5t147 36.5q112 0 190 -84q82 -89 82 -229zM1029 313q-14 79 -72 127t-127 48q-78 0 -137.5 -46.5t-77.5 -128.5h414zM539 293q0 75 -58 133q-62 62 -153 62q-97 0 -155 -71q-52 -64 -52 -151q0 -82 59.5 -144.5t151.5 -62.5q95 0 153 71q54 67 54 163z" />
    <glyph glyph-name="endash" unicode="&#x2013;" horiz-adv-x="540" 
d="M501 267h-501v67h501v-67z" />
    <glyph glyph-name="emdash" unicode="&#x2014;" horiz-adv-x="1050" 
d="M1001 267h-1001v67h1001v-67z" />
    <glyph glyph-name="quotedblleft" unicode="&#x201c;" horiz-adv-x="460" 
d="M406 547h-74l-88 193h74zM258 547h-74l-88 193h74z" />
    <glyph glyph-name="quotedblright" unicode="&#x201d;" horiz-adv-x="484" 
d="M393 740l-88 -193h-74l88 193h74zM245 740l-88 -193h-70l84 193h74z" />
    <glyph glyph-name="quoteleft" unicode="&#x2018;" horiz-adv-x="351" 
d="M260 547h-74l-88 193h74z" />
    <glyph glyph-name="quoteright" unicode="&#x2019;" horiz-adv-x="351" 
d="M253 740l-88 -193h-74l88 193h74z" />
    <glyph glyph-name="divide" unicode="&#xf7;" horiz-adv-x="440" 
d="M250 404h-74v127h74v-127zM397 243h-358v79h358v-79zM250 20h-74v126h74v-126z" />
    <glyph glyph-name="ydieresis" unicode="&#xff;" horiz-adv-x="538" 
d="M528 548l-317 -740h-78l86 209l-210 531h79l175 -437l185 437h80zM385 583h-74v97h74v-97zM238 583h-74v97h74v-97z" />
    <glyph glyph-name="Ydieresis" unicode="&#x178;" horiz-adv-x="593" 
d="M591 740l-258 -493v-247h-74v247l-257 493h81l213 -416l214 416h81zM405 768h-74v97h74v-97zM258 768h-74v97h74v-97z" />
    <glyph glyph-name="fraction" unicode="&#x2215;" horiz-adv-x="225" 
d="M309 740l-332 -740h-45l332 740h45z" />
    <glyph glyph-name="currency" unicode="&#xa4;" 
d="M529 295q0 -41 -11.5 -73t-37.5 -70l44 -42l-53 -53l-44 43q-68 -50 -155 -50q-40 0 -75 12.5t-70 37.5l-44 -43l-52 53l43 42q-48 71 -48 148q0 44 11 79.5t37 71.5l-43 43l52 54l44 -43q65 49 154 49q40 0 75.5 -12.5t70.5 -36.5l44 43l53 -54l-44 -43q49 -69 49 -156z
M456 303q0 72 -51 125t-124 53q-78 0 -130.5 -51.5t-52.5 -129.5q0 -72 52 -125t125 -53q75 0 128 52t53 129z" />
    <glyph glyph-name="guilsinglleft" unicode="&#x2039;" horiz-adv-x="607" 
d="M211 133l-58 -32l-113 200l113 200l58 -32l-94 -168z" />
    <glyph glyph-name="guilsinglright" unicode="&#x203a;" horiz-adv-x="607" 
d="M211 301l-113 -200l-58 32l94 168l-94 168l58 32z" />
    <glyph glyph-name="daggerdbl" unicode="&#x2021;" horiz-adv-x="559" 
d="M505 32l-191 -7v-191h-83v189l-190 7v63l190 5v298l-190 4v66l190 5v193h83v-191l191 -5v-68l-191 -4v-294l191 -5v-65z" />
    <glyph glyph-name="periodcentered" unicode="&#xb7;" horiz-adv-x="327" 
d="M200 215h-74v81h74v-81z" />
    <glyph glyph-name="periodcentered" unicode="&#x2219;" horiz-adv-x="327" 
d="M200 215h-74v81h74v-81z" />
    <glyph glyph-name="quotesinglbase" unicode="&#x201a;" horiz-adv-x="230" 
d="M185 100l-88 -193h-70l84 193h74z" />
    <glyph glyph-name="quotedblbase" unicode="&#x201e;" horiz-adv-x="390" 
d="M333 100l-88 -193h-74l88 193h74zM185 100l-88 -193h-70l84 193h74z" />
    <glyph glyph-name="perthousand" unicode="&#x2030;" horiz-adv-x="1190" 
d="M361 573q0 -72 -51 -122t-122 -50q-72 0 -123.5 50.5t-51.5 123.5q0 75 50 126t126 51q73 0 122.5 -52.5t49.5 -126.5zM586 740l-333 -740h-72l333 740h72zM1152 159q0 -72 -51 -122t-123 -50q-71 0 -123 51t-52 122q0 74 51 126t125 52t123.5 -52.5t49.5 -126.5z
M753 159q0 -72 -51 -122t-123 -50t-124 51t-52 122q0 74 51 126t126 52q74 0 123.5 -52.5t49.5 -126.5zM290 578q0 47 -30.5 75.5t-70.5 28.5q-39 0 -72 -32t-33 -76q0 -42 30 -72t73 -30q44 0 75.5 31.5t27.5 74.5zM1081 159q0 43 -30.5 75.5t-71.5 32.5q-46 0 -75.5 -32.5
t-29.5 -78.5q0 -42 30 -70t73 -28q45 0 74.5 28.5t29.5 72.5zM682 159q0 43 -30.5 75.5t-71.5 32.5q-45 0 -75.5 -32.5t-30.5 -79.5q0 -42 30.5 -69.5t74.5 -27.5q45 0 74 28t29 73z" />
    <glyph glyph-name="Acircumflex" unicode="&#xc2;" horiz-adv-x="740" 
d="M730 0h-80l-107 248h-345l-107 -248h-80l319 740h82l220 -512zM514 315l-143 340l-144 -340h287zM545 773h-92l-86 75l-88 -75h-90l145 127h64z" />
    <glyph glyph-name="Ecircumflex" unicode="&#xca;" horiz-adv-x="535" 
d="M480 0h-404v740h404v-67h-330v-267h319v-67h-319v-272h330v-67zM455 773h-92l-86 75l-88 -75h-90l145 127h64z" />
    <glyph glyph-name="Aacute" unicode="&#xc1;" horiz-adv-x="740" 
d="M730 0h-80l-107 248h-345l-107 -248h-80l319 740h82l220 -512zM514 315l-143 340l-144 -340h287zM541 898l-193 -114l-34 56l192 116z" />
    <glyph glyph-name="Edieresis" unicode="&#xcb;" horiz-adv-x="535" 
d="M480 0h-404v740h404v-67h-330v-267h319v-67h-319v-272h330v-67zM395 773h-74v97h74v-97zM248 773h-74v97h74v-97z" />
    <glyph glyph-name="Egrave" unicode="&#xc8;" horiz-adv-x="535" 
d="M480 0h-404v740h404v-67h-330v-267h319v-67h-319v-272h330v-67zM404 837l-33 -58l-197 106l32 60z" />
    <glyph glyph-name="Iacute" unicode="&#xcd;" horiz-adv-x="230" 
d="M150 0h-74v740h74v-740zM266 893l-193 -114l-34 56l192 116z" />
    <glyph glyph-name="Icircumflex" unicode="&#xce;" horiz-adv-x="230" 
d="M150 0h-74v740h74v-740zM290 773h-92l-86 75l-88 -75h-90l145 127h64z" />
    <glyph glyph-name="Idieresis" unicode="&#xcf;" horiz-adv-x="230" 
d="M150 0h-74v740h74v-740zM220 778h-74v97h74v-97zM73 778h-74v97h74v-97z" />
    <glyph glyph-name="Igrave" unicode="&#xcc;" horiz-adv-x="230" 
d="M150 0h-74v740h74v-740zM189 832l-33 -58l-197 106l32 60z" />
    <glyph glyph-name="Oacute" unicode="&#xd3;" horiz-adv-x="870" 
d="M826 372q0 -161 -115 -273t-277 -112q-157 0 -273.5 110.5t-116.5 268.5q0 162 114 274t276 112q159 0 275.5 -110.5t116.5 -269.5zM752 372q0 129 -93.5 219t-223.5 90q-131 0 -224 -92t-93 -223q0 -127 94.5 -217.5t222.5 -90.5q132 0 224.5 91.5t92.5 222.5zM576 898
l-193 -114l-34 56l192 116z" />
    <glyph glyph-name="Ocircumflex" unicode="&#xd4;" horiz-adv-x="870" 
d="M826 372q0 -161 -115 -273t-277 -112q-157 0 -273.5 110.5t-116.5 268.5q0 162 114 274t276 112q159 0 275.5 -110.5t116.5 -269.5zM752 372q0 129 -93.5 219t-223.5 90q-131 0 -224 -92t-93 -223q0 -127 94.5 -217.5t222.5 -90.5q132 0 224.5 91.5t92.5 222.5zM605 778
h-92l-86 75l-88 -75h-90l145 127h64z" />
    <glyph glyph-name="Ograve" unicode="&#xd2;" horiz-adv-x="870" 
d="M826 372q0 -161 -115 -273t-277 -112q-157 0 -273.5 110.5t-116.5 268.5q0 162 114 274t276 112q159 0 275.5 -110.5t116.5 -269.5zM752 372q0 129 -93.5 219t-223.5 90q-131 0 -224 -92t-93 -223q0 -127 94.5 -217.5t222.5 -90.5q132 0 224.5 91.5t92.5 222.5zM524 842
l-33 -58l-197 106l32 60z" />
    <glyph glyph-name="Uacute" unicode="&#xda;" horiz-adv-x="657" 
d="M580 290q0 -68 -9 -109q-12 -56 -46.5 -100.5t-86 -69t-110.5 -24.5q-120 0 -193 88q-34 42 -46.5 96t-12.5 119v450h74v-450q0 -47 7 -85t28.5 -72t60 -54.5t82.5 -20.5q40 0 76.5 17.5t59.5 49.5q26 33 34 72.5t8 92.5v450h74v-450zM486 893l-193 -114l-34 56l192 116z
" />
    <glyph glyph-name="Ucircumflex" unicode="&#xdb;" horiz-adv-x="657" 
d="M580 290q0 -68 -9 -109q-12 -56 -46.5 -100.5t-86 -69t-110.5 -24.5q-120 0 -193 88q-34 42 -46.5 96t-12.5 119v450h74v-450q0 -47 7 -85t28.5 -72t60 -54.5t82.5 -20.5q40 0 76.5 17.5t59.5 49.5q26 33 34 72.5t8 92.5v450h74v-450zM505 773h-92l-86 75l-88 -75h-90
l145 127h64z" />
    <glyph glyph-name="Ugrave" unicode="&#xd9;" horiz-adv-x="657" 
d="M580 290q0 -68 -9 -109q-12 -56 -46.5 -100.5t-86 -69t-110.5 -24.5q-120 0 -193 88q-34 42 -46.5 96t-12.5 119v450h74v-450q0 -47 7 -85t28.5 -72t60 -54.5t82.5 -20.5q40 0 76.5 17.5t59.5 49.5q26 33 34 72.5t8 92.5v450h74v-450zM429 837l-33 -58l-197 106l32 60z
" />
    <glyph glyph-name="dotlessi" unicode="&#x131;" horiz-adv-x="200" 
d="M137 0h-74v548h74v-548z" />
    <glyph glyph-name="circumflex" unicode="&#x2c6;" horiz-adv-x="502" 
d="M430 613h-92l-86 75l-88 -75h-90l145 127h64z" />
    <glyph glyph-name="tilde" unicode="&#x2dc;" horiz-adv-x="439" 
d="M365 652q-24 -19 -43 -29t-41 -10q-34 3 -90 33q-6 4 -15 6t-16 2q-12 0 -26 -6.5t-30 -22.5l-30 49q42 41 88 41q21 0 45 -11q59 -27 72 -28q17 2 28 6.5t29 18.5z" />
    <glyph glyph-name="macron" unicode="&#xaf;" horiz-adv-x="440" 
d="M382 663h-323v64h323v-64z" />
    <glyph glyph-name="breve" unicode="&#x2d8;" horiz-adv-x="453" 
d="M379 717q-10 -50 -53.5 -78t-100.5 -28q-54 0 -97.5 28t-53.5 78h63q7 -18 34 -32.5t58 -14.5q57 0 87 47h63z" />
    <glyph glyph-name="ring" unicode="&#x2da;" horiz-adv-x="332" 
d="M258 706q0 -38 -27 -66t-65 -28t-66 27t-28 65t27 66t65 28t66 -27t28 -65zM220 704q0 23 -15.5 39.5t-38.5 16.5t-39.5 -15.5t-16.5 -38.5t15.5 -39.5t38.5 -16.5t39.5 15.5t16.5 38.5z" />
    <glyph glyph-name="cedilla" unicode="&#xb8;" horiz-adv-x="324" 
d="M252 -133q0 -41 -27.5 -65.5t-66.5 -24.5q-29 0 -52 18t-32 55l43 4q9 -32 41 -32q22 0 35.5 13.5t13.5 35.5q0 18 -14.5 31.5t-34.5 13.5q-12 -2 -21 -6.5t-18 -14.5l-31 15l41 90h35l-23 -57l31 6q34 0 57 -21t23 -61z" />
    <glyph glyph-name="Scaron" unicode="&#x160;" horiz-adv-x="498" 
d="M476 203q0 -91 -66.5 -153.5t-158.5 -62.5q-97 0 -163 62t-66 158h79q0 -61 43 -105t105 -44q64 0 108.5 41.5t44.5 104.5q0 29 -14 57.5t-37 47.5t-54 31q-18 7 -64 19t-64 19q-37 14 -62 36q-30 25 -46 61.5t-16 77.5q0 88 60.5 143.5t149.5 55.5q84 0 143.5 -57.5
t59.5 -142.5h-77q0 56 -38.5 92.5t-96.5 36.5q-53 0 -90 -38t-37 -91q0 -46 28 -76t118 -55q67 -19 75 -22q38 -14 67 -41q69 -60 69 -155zM409 892q-10 -50 -53.5 -78t-100.5 -28q-54 0 -97.5 28t-53.5 78h63q7 -18 34 -32.5t58 -14.5q57 0 87 47h63z" />
    <glyph glyph-name="scaron" unicode="&#x161;" horiz-adv-x="388" 
d="M361 161q0 -77 -49.5 -125.5t-127.5 -48.5q-69 0 -117.5 51.5t-48.5 122.5h74q0 -42 28.5 -72.5t70.5 -30.5q41 0 68.5 25.5t27.5 65.5q0 45 -32 71q-25 20 -68.5 33t-57.5 19q-29 12 -48.5 30.5t-31 45.5t-11.5 58q0 66 46 110t112 44q61 0 106 -44t45 -105h-74
q0 35 -24 56t-61 21q-32 0 -54 -22t-22 -54q0 -40 30 -62q20 -14 66 -29q74 -24 107 -52q46 -40 46 -108zM344 692q-10 -50 -53.5 -78t-100.5 -28q-54 0 -97.5 28t-53.5 78h63q7 -18 34 -32.5t58 -14.5q57 0 87 47h63z" />
    <glyph glyph-name="Zcaron" unicode="&#x17d;" horiz-adv-x="480" 
d="M474 0h-457v66l363 607h-352v67h435v-67l-362 -606h373v-67zM414 887q-10 -50 -53.5 -78t-100.5 -28q-54 0 -97.5 28t-53.5 78h63q7 -18 34 -32.5t58 -14.5q57 0 87 47h63z" />
    <glyph glyph-name="zcaron" unicode="&#x17e;" horiz-adv-x="425" 
d="M415 0h-405v65l296 415h-286v68h376v-68l-294 -413h313v-67zM374 692q-10 -50 -53.5 -78t-100.5 -28q-54 0 -97.5 28t-53.5 78h63q7 -18 34 -32.5t58 -14.5q57 0 87 47h63z" />
    <glyph glyph-name="brokenbar" unicode="&#xa6;" horiz-adv-x="220" 
d="M147 375h-79v288h79v-288zM147 5h-79v288h79v-288z" />
    <glyph glyph-name="Eth" unicode="&#xd0;" horiz-adv-x="795" 
d="M750 369q0 -189 -122 -285q-109 -86 -300 -86h-203v361h-96v67h96v312h199q189 0 300 -84q126 -95 126 -285zM676 369q0 168 -114 242q-94 61 -267 61h-96v-246h129v-67h-129v-295h96q176 0 267 59q114 74 114 246z" />
    <glyph glyph-name="eth" unicode="&#xf0;" horiz-adv-x="650" 
d="M615 277q0 -124 -82.5 -206.5t-202.5 -82.5q-117 0 -202 83t-85 200q0 123 84 206t204 83q42 0 70 -7q49 -12 87 -47q-21 35 -53 70q-49 53 -105 82l-87 -34l-63 26l95 36q-57 31 -138 54h140q16 -4 35 -12q13 -5 30 -15l117 42l56 -28l-122 -45q97 -72 153 -163
q69 -112 69 -242zM541 277q0 88 -61.5 149.5t-149.5 61.5q-91 0 -152 -63t-61 -154q0 -88 62 -150t151 -62q91 0 151 63t60 155z" />
    <glyph glyph-name="Yacute" unicode="&#xdd;" horiz-adv-x="593" 
d="M591 740l-258 -493v-247h-74v247l-257 493h81l213 -416l214 416h81zM426 858l-193 -114l-34 56l192 116z" />
    <glyph glyph-name="yacute" unicode="&#xfd;" horiz-adv-x="538" 
d="M528 548l-317 -740h-78l86 209l-210 531h79l175 -437l185 437h80zM411 723l-193 -114l-34 56l192 116z" />
    <glyph glyph-name="Thorn" unicode="&#xde;" horiz-adv-x="592" 
d="M566 369q0 -122 -82 -175q-68 -44 -195 -44h-139v-290h-74v880h74v-148h121q140 0 206 -38q89 -51 89 -185zM492 371q0 105 -80 136q-42 16 -166 16h-96v-306h127q129 0 176 44q39 37 39 110z" />
    <glyph glyph-name="thorn" unicode="&#xfe;" horiz-adv-x="682" 
d="M641 270q0 -122 -86 -204t-209 -82q-69 0 -118.5 26t-88.5 78v-281h-75v931h75v-283q37 47 84 73q56 31 129 31q112 0 198 -81q91 -85 91 -208zM566 270q0 90 -62 153t-152 63q-91 0 -155 -60t-64 -149q0 -98 58 -159t157 -61q91 0 154.5 60.5t63.5 152.5z" />
    <glyph glyph-name="minus" unicode="&#xad;" horiz-adv-x="440" 
d="M397 243h-358v79h358v-79z" />
    <glyph glyph-name="multiply" unicode="&#xd7;" horiz-adv-x="504" 
d="M435 120l-49 -49l-126 125l-123 -123l-50 50l123 123l-126 126l50 49l125 -125l123 123l51 -50l-124 -123z" />
    <glyph glyph-name="onesuperior" unicode="&#xb9;" horiz-adv-x="210" 
d="M155 341h-37v337h-62v33h99v-370z" />
    <glyph glyph-name="twosuperior" unicode="&#xb2;" horiz-adv-x="275" 
d="M257 664q0 -37 -22 -68q-12 -17 -50 -53l-114 -109h184v-34h-235v33l141 136q28 27 39 42q19 26 19 53q0 32 -23.5 54.5t-57.5 22.5q-45 0 -68 -39q-6 -10 -8 -23.5t-2 -27.5h-37q0 54 32.5 89.5t85.5 35.5q25 0 43.5 -7t36.5 -25q36 -36 36 -80z" />
    <glyph glyph-name="threesuperior" unicode="&#xb3;" horiz-adv-x="275" 
d="M267 465q0 -50 -35 -85t-85 -35q-49 0 -82.5 36.5t-33.5 86.5h37q0 -28 12 -47t29 -29.5t37 -10.5q35 0 59 24t24 59q0 26 -15 47.5t-35 28t-42 6.5h-13v33l13 -1q29 0 48.5 15t19.5 44q0 25 -16.5 40.5t-41.5 15.5t-39.5 -18.5t-14.5 -44.5h-37q0 43 25.5 70.5
t68.5 27.5q39 0 65.5 -27.5t26.5 -66.5q0 -23 -9.5 -39.5t-28.5 -30.5q29 -13 46 -40t17 -59z" />
    <glyph glyph-name="onehalf" unicode="&#xbd;" horiz-adv-x="600" 
d="M567 269q0 -37 -22 -68q-12 -17 -50 -53l-114 -109h184v-34h-235v33l141 136q28 27 39 42q19 26 19 53q0 32 -23.5 54.5t-57.5 22.5q-45 0 -68 -39q-6 -10 -8 -23.5t-2 -27.5h-37q0 54 32.5 89.5t85.5 35.5q25 0 43.5 -7t36.5 -25q36 -36 36 -80zM150 341h-37v337h-62v33
h99v-370zM459 740l-332 -740h-45l332 740h45z" />
    <glyph glyph-name="onequarter" unicode="&#xbc;" horiz-adv-x="550" 
d="M145 341h-37v337h-62v33h99v-370zM506 68h-34v-68h-37v68h-187v33l179 269h45v-269h34v-33zM435 101v218l-143 -218h143zM454 735l-332 -740h-45l332 740h45z" />
    <glyph glyph-name="threequarters" unicode="&#xbe;" horiz-adv-x="620" 
d="M601 63h-34v-68h-37v68h-187v33l179 269h45v-269h34v-33zM530 96v218l-143 -218h143zM539 740l-332 -740h-45l332 740h45zM272 465q0 -50 -35 -85t-85 -35q-49 0 -82.5 36.5t-33.5 86.5h37q0 -28 12 -47t29 -29.5t37 -10.5q35 0 59 24t24 59q0 26 -15 47.5t-35 28
t-42 6.5h-13v33l13 -1q29 0 48.5 15t19.5 44q0 25 -16.5 40.5t-41.5 15.5t-39.5 -18.5t-14.5 -44.5h-37q0 43 25.5 70.5t68.5 27.5q39 0 65.5 -27.5t26.5 -66.5q0 -23 -9.5 -39.5t-28.5 -30.5q29 -13 46 -40t17 -59z" />
    </font>
</defs>
</svg>
